# xmcd CD database file
#
# Track frame offsets:
#	150
#	11297
#	29007
#	49012
#	63817
#	97620
#	109662
#	119120
#	144540
#	158940
#	167757
#	181497
#	187147
#	198462
#	213847
#
# Disc length: 2982 seconds
#
# Revision: 0
# Processed by: cddbd v1.5.2PL0 Copyright (c) Steve Scherf et al.
# Submitted via: CDex 1.51
#
DISCID=cf0ba40f
DTITLE=Gahl Sasson - The Alchemy Of Sound
DYEAR=1900
DGENRE=New Age
TTITLE0=Info
TTITLE1=Tree of Life
TTITLE2=Bendicion
TTITLE3=Primavera
TTITLE4=The Chariot
TTITLE5=Dunes
TTITLE6=Gold
TTITLE7=The Nameless One
TTITLE8=Full Moon
TTITLE9=Gray Wolf
TTITLE10=Lady of the Lake
TTITLE11=Love
TTITLE12=Gateway
TTITLE13=Africa
TTITLE14=Message Saved
EXTD=
EXTT0=
EXTT1=
EXTT2=
EXTT3=
EXTT4=
EXTT5=
EXTT6=
EXTT7=
EXTT8=
EXTT9=
EXTT10=
EXTT11=
EXTT12=
EXTT13=
EXTT14=
PLAYORDER=
